HIERARCHY
ROOT Hips
{
	OFFSET 0.000000 0.000000 0.000000 
	CHANNELS 6 Xposition Yposition Zposition Zrotation Yrotation Xrotation
	JOINT LeftUpLeg
	{
		OFFSET 1.363060 -1.794630 0.839290 
		CHANNELS 3 Zrotation Yrotation Xrotation
		JOINT LeftLeg
		{
			OFFSET 2.448110 -6.726130 0.000000 
			CHANNELS 3 Zrotation Yrotation Xrotation
			JOINT LeftFoot
			{
				OFFSET 2.562200 -7.039590 0.000000 
				CHANNELS 3 Zrotation Yrotation Xrotation
				JOINT LeftToeBase
				{
					OFFSET 0.157640 -0.433110 2.322550 
					CHANNELS 3 Zrotation Yrotation Xrotation
					End Site
					{
						OFFSET 0.000000 0.000000 0.000000 
					}
				}
			}
		}
	}
	JOINT RightUpLeg
	{
		OFFSET -1.305520 -1.794630 0.839290 
		CHANNELS 3 Zrotation Yrotation Xrotation
		JOINT RightLeg
		{
			OFFSET -2.542530 -6.985550 0.000000 
			CHANNELS 3 Zrotation Yrotation Xrotation
			JOINT RightFoot
			{
				OFFSET -2.568260 -7.056230 0.000000 
				CHANNELS 3 Zrotation Yrotation Xrotation
				JOINT RightToeBase
				{
					OFFSET -0.164730 -0.452590 2.363150 
					CHANNELS 3 Zrotation Yrotation Xrotation
					End Site
					{
						OFFSET 0.000000 0.000000 0.000000 
					}
				}
			}
		}
	}
	JOINT Spine
	{
		OFFSET 0.028270 2.035590 -0.193380 
		CHANNELS 3 Zrotation Yrotation Xrotation
		JOINT Spine1
		{
			OFFSET 0.056720 2.048850 -0.042750 
			CHANNELS 3 Zrotation Yrotation Xrotation
			JOINT Neck1
			{
				OFFSET -0.054170 1.746240 0.172020 
				CHANNELS 3 Zrotation Yrotation Xrotation
				JOINT Head
				{
					OFFSET 0.104070 1.761360 -0.123970 
					CHANNELS 3 Zrotation Yrotation Xrotation
					End Site
					{
						OFFSET 0.000000 0.000000 0.000000 
					}
				}
			}
			JOINT LeftArm
			{
				OFFSET 3.362410 1.200890 -0.311210 
				CHANNELS 3 Zrotation Yrotation Xrotation
				JOINT LeftForeArm
				{
					OFFSET 4.983000 -0.000000 -0.000000 
					CHANNELS 3 Zrotation Yrotation Xrotation
					JOINT LeftHand
					{
						OFFSET 3.483560 -0.000000 -0.000000 
						CHANNELS 3 Zrotation Yrotation Xrotation
						JOINT LeftHandIndex1
						{
							OFFSET 0.715260 -0.000000 -0.000000 
							CHANNELS 3 Zrotation Yrotation Xrotation
							End Site
							{
								OFFSET 0.000000 0.000000 0.000000 
							}
						}
					}
				}
			}
			JOINT RightArm
			{
				OFFSET -3.136600 1.374050 -0.404650 
				CHANNELS 3 Zrotation Yrotation Xrotation
				JOINT RightForeArm
				{
					OFFSET -5.241900 -0.000000 -0.000000 
					CHANNELS 3 Zrotation Yrotation Xrotation
					JOINT RightHand
					{
						OFFSET -3.444170 -0.000000 -0.000000 
						CHANNELS 3 Zrotation Yrotation Xrotation
						JOINT RightHandIndex1
						{
							OFFSET -0.622530 -0.000000 -0.000000 
							CHANNELS 3 Zrotation Yrotation Xrotation
							End Site
							{
								OFFSET 0.000000 0.000000 0.000000 
							}
						}
					}
				}
			}
		}
	}
}
MOTION
Frames: 7
Frame Time: 0.041667
0.210240 17.847772 -29.634046 -3.980405 4.681160 2.776044 -7.478544 -5.296994 -5.925452 0.269993 8.543020 21.975781 -3.388418 14.432983 -2.932486 2.067400 -9.005200 -25.811500 19.106327 -0.363310 -6.081633 -1.031158 -8.970573 23.061891 5.823780 -24.376009 -9.763717 -0.011000 0.676900 -1.860200 1.947692 0.955902 -3.631099 0.083402 0.387150 -3.681172 1.659019 -1.404153 16.641641 -3.012600 -0.022900 11.124700 -87.920899 7.070188 25.496702 16.107373 -25.058906 -3.244059 0.236938 0.437696 -8.751984 -7.125000 0.000000 0.000000 89.405358 -2.621071 12.002809 -12.517462 21.217648 -2.340255 -0.021547 -0.557592 -2.483119 7.125000 0.000000 0.000000 
0.211234 17.847176 -29.638517 -4.039743 4.686876 2.769179 -7.412205 -5.269693 -5.969723 0.276697 8.553146 22.010607 -3.379283 14.396775 -2.932892 2.057000 -8.983800 -25.744600 19.177472 -0.334033 -6.070476 -1.027862 -8.963585 23.040101 5.834365 -24.415321 -9.771552 -0.010700 0.668700 -1.837500 2.012116 0.913837 -3.644620 0.149759 0.368211 -3.744029 1.600580 -1.294531 16.540172 -3.017900 0.010300 11.081900 -88.004210 7.106897 25.370589 16.139039 -25.102387 -3.255728 0.235636 0.434496 -8.691458 -7.125000 0.000000 0.000000 89.325993 -2.572433 11.985077 -12.443385 21.110877 -2.316006 -0.025510 -0.553999 -2.324975 7.125000 0.000000 0.000000 
0.215308 17.848070 -29.643683 -4.016582 4.722504 2.799956 -7.441736 -5.293550 -6.012575 0.276050 8.552750 22.012024 -3.377717 14.391118 -2.919367 2.046600 -8.962400 -25.677700 19.131282 -0.374062 -6.138150 -1.029220 -8.963284 23.038017 5.838153 -24.421238 -9.694587 -0.011200 0.684600 -1.881400 2.057719 0.850513 -3.607648 0.232506 0.340041 -3.678062 1.541012 -1.201650 16.465616 -3.020500 0.034400 11.059300 -88.116010 7.056244 25.222471 16.146342 -25.118853 -3.260859 0.240972 0.431556 -8.550091 -7.125000 0.000000 0.000000 89.207333 -2.499856 12.110206 -12.428076 21.085152 -2.310111 -0.027031 -0.552076 -2.274981 7.125000 0.000000 0.000000 
0.216798 17.848765 -29.647161 -4.034002 4.693227 2.819833 -7.421586 -5.239823 -6.066802 0.277554 8.554629 22.018331 -3.368921 14.360117 -2.908003 2.022800 -8.913400 -25.524700 19.144722 -0.335503 -6.157721 -1.028485 -8.960963 23.034466 5.839829 -24.426072 -9.703739 -0.011000 0.675800 -1.857100 2.105150 0.810160 -3.464554 0.300852 0.316861 -3.544921 1.492194 -1.152098 16.733950 -3.029500 0.055100 11.308500 -88.204458 6.726524 25.034749 16.139808 -25.121402 -3.261072 0.242912 0.433947 -8.485399 -7.125000 0.000000 0.000000 89.126502 -2.057098 12.079454 -12.321036 20.939277 -2.277055 -0.031204 -0.547930 -2.029435 7.125000 0.000000 0.000000 
0.219182 17.849262 -29.651135 -4.034224 4.696208 2.836367 -7.419085 -5.208593 -6.108715 0.276785 8.550623 22.010629 -3.360749 14.331632 -2.886475 2.010600 -8.888100 -25.445900 19.137069 -0.327229 -6.193755 -1.029677 -8.962944 23.041697 5.841654 -24.430065 -9.696856 -0.010900 0.673400 -1.850600 2.276762 0.623698 -3.493951 0.566126 0.230400 -3.574346 1.425291 -0.836043 16.683097 -2.970300 0.163100 11.274200 -88.597414 6.882911 24.498268 16.166605 -25.168910 -3.273989 0.244692 0.434079 -8.373213 -7.125000 0.000000 0.000000 88.770752 -2.063671 12.513006 -12.256423 20.834583 -2.253670 -0.034684 -0.543445 -1.892651 7.125000 0.000000 0.000000 
0.221766 17.849858 -29.655110 -4.029238 4.691220 2.856751 -7.424057 -5.167498 -6.157385 0.275966 8.546897 22.003620 -3.352296 14.302216 -2.866707 2.009000 -8.884700 -25.435500 19.119644 -0.320735 -6.233989 -1.030713 -8.964308 23.046922 5.841485 -24.426565 -9.680650 -0.010800 0.671500 -1.845400 2.387598 0.500403 -3.546167 0.739577 0.174009 -3.626733 1.401298 -0.643759 16.622816 -2.921400 0.228200 11.211500 -88.853359 7.062636 24.145346 16.187252 -25.203081 -3.283526 0.245894 0.435403 -8.318845 -7.125000 0.000000 0.000000 88.545202 -2.139795 12.777620 -12.201300 20.747450 -2.234412 -0.038850 -0.539471 -1.724994 7.125000 0.000000 0.000000 
0.224647 17.850455 -29.659084 -4.022637 4.671743 2.880329 -7.432483 -5.113876 -6.210727 0.275003 8.542452 21.994340 -3.344890 14.276457 -2.848919 2.019500 -8.906700 -25.503800 19.096947 -0.311240 -6.279221 -1.032162 -8.966621 23.055593 5.838888 -24.413815 -9.656388 -0.010800 0.672600 -1.848300 2.497569 0.382564 -3.581117 0.910847 0.120220 -3.653670 1.361775 -0.434303 16.567580 -2.880600 0.300900 11.164600 -89.110642 7.185843 23.787488 16.189568 -25.213775 -3.286140 0.246797 0.436842 -8.288555 -7.125000 0.000000 0.000000 88.319652 -2.172022 13.031879 -12.145118 20.659394 -2.215068 -0.042942 -0.535548 -1.566351 7.125000 0.000000 0.000000 
